<mxfile host="65bd71144e">
    <diagram id="HIP3nbAZw_EuaXWnEj3U" name="Page-1">
        <mxGraphModel dx="475" dy="441" grid="1" gridSize="10" guides="1" tooltips="1" connect="1" arrows="1" fold="1" page="1" pageScale="1" pageWidth="850" pageHeight="1100" math="0" shadow="0">
            <root>
                <mxCell id="0"/>
                <mxCell id="1" parent="0"/>
                <mxCell id="2" value="Start" style="strokeWidth=2;html=1;shape=mxgraph.flowchart.terminator;whiteSpace=wrap;" parent="1" vertex="1">
                    <mxGeometry x="110" y="70" width="100" height="60" as="geometry"/>
                </mxCell>
                <mxCell id="3" value="Stop" style="strokeWidth=2;html=1;shape=mxgraph.flowchart.terminator;whiteSpace=wrap;" parent="1" vertex="1">
                    <mxGeometry x="100" y="340" width="100" height="60" as="geometry"/>
                </mxCell>
                <mxCell id="5" value="display happy face&lt;br&gt;pause for half a second&lt;br&gt;clear screen" style="shape=parallelogram;html=1;strokeWidth=2;perimeter=parallelogramPerimeter;whiteSpace=wrap;rounded=1;arcSize=12;size=0.23;" vertex="1" parent="1">
                    <mxGeometry x="65" y="180" width="170" height="90" as="geometry"/>
                </mxCell>
                <mxCell id="6" value="On start" style="text;html=1;align=center;verticalAlign=middle;resizable=0;points=[];autosize=1;strokeColor=none;fillColor=none;" vertex="1" parent="1">
                    <mxGeometry x="115" y="15" width="70" height="30" as="geometry"/>
                </mxCell>
                <mxCell id="7" value="Start" style="strokeWidth=2;html=1;shape=mxgraph.flowchart.terminator;whiteSpace=wrap;" vertex="1" parent="1">
                    <mxGeometry x="375" y="70" width="100" height="60" as="geometry"/>
                </mxCell>
                <mxCell id="8" value="Stop" style="strokeWidth=2;html=1;shape=mxgraph.flowchart.terminator;whiteSpace=wrap;" vertex="1" parent="1">
                    <mxGeometry x="385" y="860" width="100" height="60" as="geometry"/>
                </mxCell>
                <mxCell id="9" value="button A" style="text;html=1;align=center;verticalAlign=middle;resizable=0;points=[];autosize=1;strokeColor=none;fillColor=none;" vertex="1" parent="1">
                    <mxGeometry x="390" y="15" width="70" height="30" as="geometry"/>
                </mxCell>
                <mxCell id="10" value="clear screen" style="shape=parallelogram;html=1;strokeWidth=2;perimeter=parallelogramPerimeter;whiteSpace=wrap;rounded=1;arcSize=12;size=0.23;" vertex="1" parent="1">
                    <mxGeometry x="375" y="160" width="100" height="60" as="geometry"/>
                </mxCell>
                <mxCell id="11" value="xAxis = 0&lt;br&gt;yAxis = 0&lt;br&gt;sprite = led light up on xAxis, yAxis" style="rounded=1;whiteSpace=wrap;html=1;absoluteArcSize=1;arcSize=14;strokeWidth=2;" vertex="1" parent="1">
                    <mxGeometry x="375" y="230" width="105" height="90" as="geometry"/>
                </mxCell>
                <mxCell id="12" value="while&amp;nbsp; xAxis &amp;lt;= 4" style="strokeWidth=2;html=1;shape=mxgraph.flowchart.decision;whiteSpace=wrap;" vertex="1" parent="1">
                    <mxGeometry x="380" y="340" width="110" height="110" as="geometry"/>
                </mxCell>
                <mxCell id="14" value="pause half a second&lt;br&gt;light up Leds diagnally top left to bottom right" style="shape=parallelogram;html=1;strokeWidth=2;perimeter=parallelogramPerimeter;whiteSpace=wrap;rounded=1;arcSize=12;size=0.23;" vertex="1" parent="1">
                    <mxGeometry x="540" y="350" width="150" height="110" as="geometry"/>
                </mxCell>
                <mxCell id="15" value="light up Led xAxis, yaxis" style="rounded=1;whiteSpace=wrap;html=1;absoluteArcSize=1;arcSize=14;strokeWidth=2;" vertex="1" parent="1">
                    <mxGeometry x="565" y="470" width="100" height="100" as="geometry"/>
                </mxCell>
                <mxCell id="16" value="show lit up LED" style="shape=parallelogram;html=1;strokeWidth=2;perimeter=parallelogramPerimeter;whiteSpace=wrap;rounded=1;arcSize=12;size=0.23;" vertex="1" parent="1">
                    <mxGeometry x="550" y="600" width="130" height="70" as="geometry"/>
                </mxCell>
                <mxCell id="17" value="pause for half a second&lt;br&gt;delete sprite" style="shape=parallelogram;html=1;strokeWidth=2;perimeter=parallelogramPerimeter;whiteSpace=wrap;rounded=1;arcSize=12;size=0.23;" vertex="1" parent="1">
                    <mxGeometry x="235" y="510" width="160" height="90" as="geometry"/>
                </mxCell>
                <mxCell id="18" value="Start" style="strokeWidth=2;html=1;shape=mxgraph.flowchart.terminator;whiteSpace=wrap;" vertex="1" parent="1">
                    <mxGeometry x="820" y="70" width="100" height="60" as="geometry"/>
                </mxCell>
                <mxCell id="19" value="Stop" style="strokeWidth=2;html=1;shape=mxgraph.flowchart.terminator;whiteSpace=wrap;" vertex="1" parent="1">
                    <mxGeometry x="850" y="820" width="100" height="60" as="geometry"/>
                </mxCell>
                <mxCell id="20" value="button B" style="text;html=1;align=center;verticalAlign=middle;resizable=0;points=[];autosize=1;strokeColor=none;fillColor=none;" vertex="1" parent="1">
                    <mxGeometry x="835" y="15" width="70" height="30" as="geometry"/>
                </mxCell>
                <mxCell id="21" value="clear screen" style="shape=parallelogram;html=1;strokeWidth=2;perimeter=parallelogramPerimeter;whiteSpace=wrap;rounded=1;arcSize=12;size=0.23;" vertex="1" parent="1">
                    <mxGeometry x="820" y="160" width="100" height="60" as="geometry"/>
                </mxCell>
                <mxCell id="22" value="xAxis = 0&lt;br&gt;yAxis = 4&lt;br&gt;sprite = led light up on xAxis, yAxis" style="rounded=1;whiteSpace=wrap;html=1;absoluteArcSize=1;arcSize=14;strokeWidth=2;" vertex="1" parent="1">
                    <mxGeometry x="820" y="230" width="105" height="90" as="geometry"/>
                </mxCell>
                <mxCell id="23" value="while&amp;nbsp; xAxis &amp;lt;= 4" style="strokeWidth=2;html=1;shape=mxgraph.flowchart.decision;whiteSpace=wrap;" vertex="1" parent="1">
                    <mxGeometry x="825" y="340" width="110" height="110" as="geometry"/>
                </mxCell>
                <mxCell id="24" value="pause half a second&lt;br&gt;light up Leds diagnally top left to bottom right" style="shape=parallelogram;html=1;strokeWidth=2;perimeter=parallelogramPerimeter;whiteSpace=wrap;rounded=1;arcSize=12;size=0.23;" vertex="1" parent="1">
                    <mxGeometry x="985" y="350" width="150" height="110" as="geometry"/>
                </mxCell>
                <mxCell id="25" value="light up Led xAxis, yaxis" style="rounded=1;whiteSpace=wrap;html=1;absoluteArcSize=1;arcSize=14;strokeWidth=2;" vertex="1" parent="1">
                    <mxGeometry x="1010" y="470" width="100" height="100" as="geometry"/>
                </mxCell>
                <mxCell id="26" value="show lit up LED" style="shape=parallelogram;html=1;strokeWidth=2;perimeter=parallelogramPerimeter;whiteSpace=wrap;rounded=1;arcSize=12;size=0.23;" vertex="1" parent="1">
                    <mxGeometry x="995" y="600" width="130" height="70" as="geometry"/>
                </mxCell>
                <mxCell id="27" value="pause for half a second&lt;br&gt;delete sprite" style="shape=parallelogram;html=1;strokeWidth=2;perimeter=parallelogramPerimeter;whiteSpace=wrap;rounded=1;arcSize=12;size=0.23;" vertex="1" parent="1">
                    <mxGeometry x="690" y="510" width="160" height="90" as="geometry"/>
                </mxCell>
                <mxCell id="28" value="xAxis = xAxis + 1&lt;br&gt;yAxis = yAxis + 1" style="rounded=1;whiteSpace=wrap;html=1;absoluteArcSize=1;arcSize=14;strokeWidth=2;" vertex="1" parent="1">
                    <mxGeometry x="565" y="700" width="85" height="80" as="geometry"/>
                </mxCell>
                <mxCell id="29" value="xAxis = xAxis + 1&lt;br&gt;yAxis = yAxis + 1" style="rounded=1;whiteSpace=wrap;html=1;absoluteArcSize=1;arcSize=14;strokeWidth=2;" vertex="1" parent="1">
                    <mxGeometry x="1010" y="710" width="85" height="80" as="geometry"/>
                </mxCell>
            </root>
        </mxGraphModel>
    </diagram>
</mxfile>